<!--generated by scripts/gen-art.mjs--><svg xmlns="http://www.w3.org/2000/svg" width="98" height="20" viewBox="0 0 98 20" role="img" aria-label="NEXT UP" shape-rendering="crispEdges"><title>NEXT UP</title><rect x="0" y="6" width="8" height="8" fill="#4ac26b"/><rect x="16" y="3" width="2" height="2" fill="#e6edf3"/><rect x="24" y="3" width="2" height="2" fill="#e6edf3"/><rect x="16" y="5" width="4" height="2" fill="#e6edf3"/><rect x="24" y="5" width="2" height="2" fill="#e6edf3"/><rect x="16" y="7" width="2" height="2" fill="#e6edf3"/><rect x="20" y="7" width="2" height="2" fill="#e6edf3"/><rect x="24" y="7" width="2" height="2" fill="#e6edf3"/><rect x="16" y="9" width="2" height="2" fill="#e6edf3"/><rect x="22" y="9" width="4" height="2" fill="#e6edf3"/><rect x="16" y="11" width="2" height="2" fill="#e6edf3"/><rect x="24" y="11" width="2" height="2" fill="#e6edf3"/><rect x="16" y="13" width="2" height="2" fill="#e6edf3"/><rect x="24" y="13" width="2" height="2" fill="#e6edf3"/><rect x="16" y="15" width="2" height="2" fill="#e6edf3"/><rect x="24" y="15" width="2" height="2" fill="#e6edf3"/><rect x="28" y="3" width="10" height="2" fill="#e6edf3"/><rect x="28" y="5" width="2" height="2" fill="#e6edf3"/><rect x="28" y="7" width="2" height="2" fill="#e6edf3"/><rect x="28" y="9" width="8" height="2" fill="#e6edf3"/><rect x="28" y="11" width="2" height="2" fill="#e6edf3"/><rect x="28" y="13" width="2" height="2" fill="#e6edf3"/><rect x="28" y="15" width="10" height="2" fill="#e6edf3"/><rect x="40" y="3" width="2" height="2" fill="#e6edf3"/><rect x="48" y="3" width="2" height="2" fill="#e6edf3"/><rect x="40" y="5" width="2" height="2" fill="#e6edf3"/><rect x="48" y="5" width="2" height="2" fill="#e6edf3"/><rect x="42" y="7" width="2" height="2" fill="#e6edf3"/><rect x="46" y="7" width="2" height="2" fill="#e6edf3"/><rect x="44" y="9" width="2" height="2" fill="#e6edf3"/><rect x="42" y="11" width="2" height="2" fill="#e6edf3"/><rect x="46" y="11" width="2" height="2" fill="#e6edf3"/><rect x="40" y="13" width="2" height="2" fill="#e6edf3"/><rect x="48" y="13" width="2" height="2" fill="#e6edf3"/><rect x="40" y="15" width="2" height="2" fill="#e6edf3"/><rect x="48" y="15" width="2" height="2" fill="#e6edf3"/><rect x="52" y="3" width="10" height="2" fill="#e6edf3"/><rect x="56" y="5" width="2" height="2" fill="#e6edf3"/><rect x="56" y="7" width="2" height="2" fill="#e6edf3"/><rect x="56" y="9" width="2" height="2" fill="#e6edf3"/><rect x="56" y="11" width="2" height="2" fill="#e6edf3"/><rect x="56" y="13" width="2" height="2" fill="#e6edf3"/><rect x="56" y="15" width="2" height="2" fill="#e6edf3"/><rect x="76" y="3" width="2" height="2" fill="#e6edf3"/><rect x="84" y="3" width="2" height="2" fill="#e6edf3"/><rect x="76" y="5" width="2" height="2" fill="#e6edf3"/><rect x="84" y="5" width="2" height="2" fill="#e6edf3"/><rect x="76" y="7" width="2" height="2" fill="#e6edf3"/><rect x="84" y="7" width="2" height="2" fill="#e6edf3"/><rect x="76" y="9" width="2" height="2" fill="#e6edf3"/><rect x="84" y="9" width="2" height="2" fill="#e6edf3"/><rect x="76" y="11" width="2" height="2" fill="#e6edf3"/><rect x="84" y="11" width="2" height="2" fill="#e6edf3"/><rect x="76" y="13" width="2" height="2" fill="#e6edf3"/><rect x="84" y="13" width="2" height="2" fill="#e6edf3"/><rect x="78" y="15" width="6" height="2" fill="#e6edf3"/><rect x="88" y="3" width="8" height="2" fill="#e6edf3"/><rect x="88" y="5" width="2" height="2" fill="#e6edf3"/><rect x="96" y="5" width="2" height="2" fill="#e6edf3"/><rect x="88" y="7" width="2" height="2" fill="#e6edf3"/><rect x="96" y="7" width="2" height="2" fill="#e6edf3"/><rect x="88" y="9" width="8" height="2" fill="#e6edf3"/><rect x="88" y="11" width="2" height="2" fill="#e6edf3"/><rect x="88" y="13" width="2" height="2" fill="#e6edf3"/><rect x="88" y="15" width="2" height="2" fill="#e6edf3"/></svg>